<?xml version="1.0" encoding="iso-8859-1"?>
<!-- Generator: Adobe Illustrator 19.0.0, SVG Export Plug-In . SVG Version: 6.00 Build 0)  -->
<svg version="1.1" id="Capa_1" xmlns="http://www.w3.org/2000/svg" xmlns:xlink="http://www.w3.org/1999/xlink" x="0px" y="0px"
	 viewBox="0 0 511.999 511.999" style="enable-background:new 0 0 511.999 511.999;" xml:space="preserve">
<path style="fill:#CFD2DC;" d="M66.452,459.849H20.005c-6.828,0-12.362-5.535-12.362-12.362V80.151
	c0-6.827,5.535-12.362,12.362-12.362h46.447C66.452,67.789,66.452,459.849,66.452,459.849z"/>
<path style="fill:#EDEFF2;" d="M403.486,459.849H66.452V67.788c45.392-8.497,100.604-15.281,163.502-15.626
	c67.234-0.368,125.938,6.717,173.533,15.626C403.486,198.475,403.486,329.162,403.486,459.849z"/>
<path style="fill:#E6E9ED;" d="M365.34,61.479v94.742c0,146.621-118.86,265.482-265.482,265.482H66.452v38.146h337.034V67.788
	C391.466,65.539,378.735,63.406,365.34,61.479z"/>
<path style="fill:#CFD2DC;" d="M492.399,459.849h-88.913V67.788h88.913c6.604,0,11.958,5.354,11.958,11.958V447.89
	C504.357,454.495,499.003,459.849,492.399,459.849z"/>
<path style="fill:#455D75;" d="M357.305,343.931h-246.09c-7.852,0-14.218-6.366-14.218-14.218V109.988
	c0-7.852,6.366-14.218,14.218-14.218h246.09c7.852,0,14.218,6.366,14.218,14.218v219.725
	C371.523,337.565,365.157,343.931,357.305,343.931z"/>
<path style="fill:#CFD2DC;" d="M296.756,428.062h-122.17c-3.621,0-6.556-2.935-6.556-6.556v-41.382c0-3.621,2.935-6.556,6.556-6.556
	h122.17c3.621,0,6.556,2.935,6.556,6.556v41.382C303.311,425.127,300.376,428.062,296.756,428.062z"/>
<path style="fill:#B8BAC1;" d="M296.631,373.569h-121.92c-3.69,0-6.681,2.991-6.681,6.681v12.229c0-3.69,2.991-6.681,6.681-6.681
	h121.92c3.689,0,6.68,2.991,6.68,6.681v-12.23C303.311,376.56,300.32,373.569,296.631,373.569z"/>
<path style="fill:#6186E4;" d="M279.825,219.907h-91.414v-83.798c0-6.105,4.949-11.054,11.054-11.054h69.306
	c6.105,0,11.054,4.949,11.054,11.054L279.825,219.907L279.825,219.907z"/>
<path style="fill:#467ED3;" d="M268.56,125.055h-18.207c6.221,0,11.264,5.043,11.264,11.264v83.588h18.206v-83.588
	C279.825,130.098,274.781,125.055,268.56,125.055z"/>
<path style="fill:#FDC74F;" d="M188.411,219.907H96.998v-83.798c0-6.105,4.949-11.054,11.054-11.054h69.306
	c6.105,0,11.054,4.949,11.054,11.054v83.798H188.411z"/>
<path style="fill:#FCA629;" d="M177.147,125.055h-20.891c6.221,0,11.264,5.043,11.264,11.264v83.588h20.891v-83.588
	C188.411,130.098,183.368,125.055,177.147,125.055z"/>
<path style="fill:#EA3939;" d="M371.287,219.907h-91.414v-83.798c0-6.105,4.949-11.054,11.054-11.054h69.306
	c6.105,0,11.054,4.949,11.054,11.054L371.287,219.907L371.287,219.907z"/>
<path style="fill:#D82A36;" d="M360.022,125.055h-14.784c6.221,0,11.264,5.043,11.264,11.264v83.588h14.784v-83.588
	C371.287,130.098,366.244,125.055,360.022,125.055z"/>
<path style="fill:#EA3939;" d="M279.825,343.931h-91.414v-83.798c0-6.105,4.949-11.054,11.054-11.054h69.306
	c6.105,0,11.054,4.949,11.054,11.054L279.825,343.931L279.825,343.931z"/>
<path style="fill:#00C6C8;" d="M188.411,343.931h-77.196c-7.852,0-14.218-6.366-14.218-14.218v-69.581
	c0-6.105,4.949-11.054,11.054-11.054h69.306c6.105,0,11.054,4.949,11.054,11.054V343.931z"/>
<path style="fill:#FDC74F;" d="M357.305,343.931h-77.432v-83.798c0-6.105,4.949-11.054,11.054-11.054h69.542
	c6.105,0,11.054,4.949,11.054,11.054v69.581C371.523,337.565,365.157,343.931,357.305,343.931z"/>
<path style="fill:#D82A36;" d="M268.536,249.079H253.93c6.221,0,11.264,5.043,11.264,11.264v83.588h14.607v-83.588
	C279.801,254.122,274.757,249.079,268.536,249.079z"/>
<path style="fill:#00AFAA;" d="M177.123,249.079h-14.607c6.221,0,11.264,5.043,11.264,11.264v83.588h14.606v-83.588
	C188.387,254.122,183.344,249.079,177.123,249.079z"/>
<path style="fill:#FCA629;" d="M360.158,249.079h-14.737c6.277,0,11.365,5.043,11.365,11.264v69.099
	c0,8.002-6.545,14.489-14.618,14.489h14.737c8.074,0,14.618-6.487,14.618-14.489v-69.099
	C371.523,254.122,366.435,249.079,360.158,249.079z"/>
<path style="fill:#6186E4;" d="M474.032,150.448h-40.221c-3.039,0-5.502,2.463-5.502,5.502v16.327c0,3.039,2.463,5.502,5.502,5.502
	h40.221c3.039,0,5.502-2.463,5.502-5.502V155.95C479.534,152.911,477.071,150.448,474.032,150.448z"/>
<path style="fill:#455D75;" d="M470.706,343.931h-33.569c-4.876,0-8.828,3.953-8.828,8.828v52.71c0,4.876,3.953,8.828,8.828,8.828
	h33.569c4.876,0,8.828-3.953,8.828-8.828v-52.71C479.534,347.883,475.582,343.931,470.706,343.931z"/>
<path style="fill:#253A4C;" d="M470.706,382.061h-33.569c-4.876,0-8.828,3.952-8.828,8.828v14.581c0,4.876,3.952,8.828,8.828,8.828
	h33.569c4.876,0,8.828-3.953,8.828-8.828v-14.581C479.534,386.013,475.581,382.061,470.706,382.061z"/>
<path d="M492.171,60.145h-87.995c-23.717-4.419-47.888-7.951-71.859-10.492c-4.187-0.447-7.96,2.596-8.406,6.795
	c-0.445,4.198,2.597,7.961,6.795,8.406c21.712,2.302,43.594,5.427,65.138,9.302v332.702c0,4.221,3.422,7.643,7.643,7.643
	s7.643-3.422,7.643-7.643V75.431h81.041c2.505,0,4.543,2.038,4.543,4.543v367.688c0,2.505-2.038,4.543-4.543,4.543H411.13v-14.096
	c0-4.221-3.422-7.643-7.643-7.643s-7.643,3.422-7.643,7.643v14.097H74.095V128.655c0-4.221-3.422-7.643-7.643-7.643
	s-7.643,3.422-7.643,7.643v323.551H20.241c-2.732,0-4.955-2.223-4.955-4.955V80.386c0-2.732,2.223-4.955,4.955-4.955h38.568v18.066
	c0,4.221,3.422,7.643,7.643,7.643s7.643-3.422,7.643-7.643V74.156c51.354-9.238,103.77-14.065,155.9-14.35
	c22.558-0.121,45.392,0.607,67.89,2.169c4.196,0.285,7.861-2.884,8.154-7.095s-2.884-7.861-7.095-8.154
	c-22.878-1.589-46.109-2.329-69.033-2.206c-54.913,0.301-110.134,5.561-164.147,15.626H20.241C9.08,60.145,0,69.225,0,80.386
	v366.865c0,11.161,9.08,20.241,20.241,20.241h46.211h337.034l0,0h88.684c10.934,0,19.829-8.895,19.829-19.829V79.975
	C512,69.041,503.105,60.145,492.171,60.145z"/>
<path d="M174.711,365.926c-7.898,0-14.323,6.425-14.323,14.324v41.132c0,7.898,6.425,14.324,14.323,14.324h121.92
	c7.898,0,14.324-6.425,14.324-14.324v-41.133c0-7.898-6.425-14.324-14.324-14.324h-121.92V365.926z M295.668,420.419H175.674
	v-39.207h119.995v39.207H295.668z"/>
<circle cx="428.31" cy="276.669" r="7.643"/>
<circle cx="453.92" cy="276.669" r="7.643"/>
<circle cx="479.53" cy="276.669" r="7.643"/>
<circle cx="428.31" cy="251.709" r="7.643"/>
<circle cx="453.92" cy="251.709" r="7.643"/>
<circle cx="479.53" cy="251.709" r="7.643"/>
<circle cx="428.31" cy="226.739" r="7.643"/>
<circle cx="453.92" cy="226.739" r="7.643"/>
<circle cx="453.92" cy="301.639" r="7.643"/>
<circle cx="479.53" cy="226.739" r="7.643"/>
<path d="M420.666,156.055v16.117c0,7.306,5.944,13.25,13.25,13.25h40.011c7.306,0,13.25-5.944,13.25-13.25v-16.117
	c0-7.306-5.944-13.25-13.25-13.25h-40.011C426.61,142.805,420.666,148.749,420.666,156.055z M435.952,158.091h35.939v12.045h-35.939
	V158.091z"/>
<path d="M420.666,405.301c0,9.175,7.464,16.639,16.639,16.639h33.232c9.175,0,16.639-7.464,16.639-16.639v-52.374
	c0-9.175-7.464-16.639-16.639-16.639h-33.232c-9.175,0-16.639,7.464-16.639,16.639V405.301z M435.952,352.927
	c0-0.746,0.607-1.353,1.353-1.353h33.232c0.746,0,1.353,0.607,1.353,1.353v52.374c0,0.746-0.607,1.353-1.353,1.353h-33.232
	c-0.746,0-1.353-0.607-1.353-1.353V352.927z"/>
<path d="M461.565,119.955v-21.4c0-4.221-3.422-7.643-7.643-7.643s-7.643,3.422-7.643,7.643v21.4c0,4.221,3.422,7.643,7.643,7.643
	S461.565,124.176,461.565,119.955z"/>
<path d="M29.404,250.178v21.4c0,4.221,3.422,7.643,7.643,7.643s7.643-3.422,7.643-7.643v-21.4c0-4.221-3.422-7.643-7.643-7.643
	S29.404,245.957,29.404,250.178z"/>
<path d="M356.369,351.574c1.179,0,2.336-0.09,3.467-0.263c10.931-1.675,19.329-11.142,19.329-22.534V110.259
	c0-12.203-9.928-22.132-22.132-22.132H111.486c-12.203,0-22.132,9.928-22.132,22.132v219.183c0,12.203,9.928,22.132,22.132,22.132
	L356.369,351.574L356.369,351.574z M279.849,245.212c-3.155-2.36-7.055-3.776-11.289-3.776h-68.884
	c-4.223,0-8.114,1.409-11.264,3.758c-3.151-2.349-7.041-3.758-11.264-3.758h-68.885c-1.239,0-2.448,0.128-3.621,0.357V227.55h83.771
	h91.414c0.008,0,0.016-0.001,0.024-0.001s0.016,0.001,0.024,0.001h84.007v14.243c-1.173-0.229-2.382-0.357-3.621-0.357H291.14
	C286.904,241.436,283.004,242.852,279.849,245.212z M196.054,136.319c0-1.997,1.625-3.621,3.621-3.621h68.884
	c1.997,0,3.622,1.625,3.622,3.621v75.888h-22.538c2.408-4.305,3.787-9.261,3.787-14.534c0-16.474-13.403-29.876-29.876-29.876
	c-4.221,0-7.643,3.422-7.643,7.643c0,4.221,3.422,7.643,7.643,7.643c8.045,0,14.59,6.545,14.59,14.59
	c0,7.67-5.953,13.963-13.48,14.534h-28.61L196.054,136.319L196.054,136.319z M363.644,212.208h-23.182
	c2.408-4.305,3.787-9.261,3.787-14.534c0-16.474-13.402-29.876-29.876-29.876c-4.221,0-7.643,3.422-7.643,7.643
	c0,4.221,3.422,7.643,7.643,7.643c8.045,0,14.59,6.545,14.59,14.59c0,7.67-5.953,13.963-13.48,14.534h-27.967v-75.889
	c0-1.997,1.625-3.621,3.621-3.621h68.885c1.997,0,3.621,1.625,3.621,3.621v75.889H363.644z M180.768,212.208H158.23
	c2.408-4.305,3.787-9.261,3.787-14.534c0-16.474-13.402-29.876-29.876-29.876c-4.221,0-7.643,3.422-7.643,7.643
	c0,4.221,3.422,7.643,7.643,7.643c8.045,0,14.59,6.545,14.59,14.59c0,7.67-5.953,13.963-13.48,14.534H104.64v-75.889
	c0-1.997,1.625-3.621,3.621-3.621h68.885c1.997,0,3.621,1.625,3.621,3.621v75.889H180.768z M111.486,103.413h245.548
	c3.775,0,6.846,3.071,6.846,6.846v7.551c-1.246-0.259-2.535-0.398-3.857-0.398h-68.885c-4.234,0-8.134,1.416-11.289,3.776
	c-3.155-2.36-7.055-3.776-11.289-3.776h-68.884c-4.223,0-8.114,1.409-11.264,3.758c-3.151-2.349-7.041-3.758-11.264-3.758h-68.885
	c-1.239,0-2.448,0.128-3.621,0.357v-7.509C104.641,106.484,107.712,103.413,111.486,103.413z M249.745,336.288
	c2.347-4.264,3.685-9.157,3.685-14.357c0-16.474-13.403-29.876-29.876-29.876c-4.221,0-7.643,3.422-7.643,7.643
	s3.422,7.643,7.643,7.643c8.045,0,14.59,6.545,14.59,14.59c0,7.185-5.225,13.159-12.072,14.357h-30.018v-27.939
	c0-4.221-3.422-7.643-7.643-7.643c-4.221,0-7.643,3.422-7.643,7.643v27.939h-22.436c2.347-4.264,3.685-9.157,3.685-14.357
	c0-16.474-13.402-29.876-29.876-29.876c-4.221,0-7.643,3.422-7.643,7.643s3.422,7.643,7.643,7.643c8.045,0,14.59,6.545,14.59,14.59
	c0,7.185-5.225,13.159-12.072,14.357h-23.173c-3.775,0-6.846-3.071-6.846-6.846v-69.099c0-1.997,1.625-3.621,3.621-3.621h68.885
	c1.997,0,3.621,1.625,3.621,3.621v17.434c0,4.221,3.422,7.643,7.643,7.643c4.221,0,7.643-3.422,7.643-7.643v-17.434
	c0-1.997,1.625-3.621,3.621-3.621h68.884c1.997,0,3.622,1.625,3.622,3.621v75.945H249.745z M287.516,260.343
	c0-1.997,1.625-3.621,3.621-3.621h69.121c1.997,0,3.621,1.625,3.621,3.621v68.434c0,4.141-3.369,7.511-7.511,7.511h-15.805
	c2.347-4.264,3.685-9.157,3.685-14.357c0-16.474-13.402-29.876-29.876-29.876c-4.221,0-7.643,3.422-7.643,7.643
	s3.422,7.643,7.643,7.643c8.045,0,14.59,6.545,14.59,14.59c0,7.185-5.225,13.159-12.072,14.357h-29.375L287.516,260.343
	L287.516,260.343z"/>
<g>
</g>
<g>
</g>
<g>
</g>
<g>
</g>
<g>
</g>
<g>
</g>
<g>
</g>
<g>
</g>
<g>
</g>
<g>
</g>
<g>
</g>
<g>
</g>
<g>
</g>
<g>
</g>
<g>
</g>
</svg>
